<?xml version="1.0" encoding="UTF-8" standalone="no"?>
<!-- Created with Inkscape (http://www.inkscape.org/) -->

<svg
   xmlns:dc="http://purl.org/dc/elements/1.1/"
   xmlns:cc="http://creativecommons.org/ns#"
   xmlns:rdf="http://www.w3.org/1999/02/22-rdf-syntax-ns#"
   xmlns:svg="http://www.w3.org/2000/svg"
   xmlns="http://www.w3.org/2000/svg"
   xmlns:xlink="http://www.w3.org/1999/xlink"
   xmlns:sodipodi="http://sodipodi.sourceforge.net/DTD/sodipodi-0.dtd"
   xmlns:inkscape="http://www.inkscape.org/namespaces/inkscape"
   width="210mm"
   height="297mm"
   viewBox="0 0 210 297"
   version="1.1"
   id="svg8"
   inkscape:version="0.92.3 (2405546, 2018-03-11)"
   sodipodi:docname="вода.svg">
  <defs
     id="defs2">
    <linearGradient
       inkscape:collect="always"
       id="linearGradient837">
      <stop
         style="stop-color:#ffffff;stop-opacity:1;"
         offset="0"
         id="stop833" />
      <stop
         style="stop-color:#ffffff;stop-opacity:0;"
         offset="1"
         id="stop835" />
    </linearGradient>
    <linearGradient
       inkscape:collect="always"
       xlink:href="#linearGradient837"
       id="linearGradient839"
       x1="107.97689"
       y1="120.86938"
       x2="107.97689"
       y2="134.74054"
       gradientUnits="userSpaceOnUse"
       gradientTransform="translate(-2.397404,18.794481)" />
  </defs>
  <sodipodi:namedview
     id="base"
     pagecolor="#ffffff"
     bordercolor="#666666"
     borderopacity="1.0"
     inkscape:pageopacity="0.0"
     inkscape:pageshadow="2"
     inkscape:zoom="0.7"
     inkscape:cx="272.07968"
     inkscape:cy="566.04002"
     inkscape:document-units="mm"
     inkscape:current-layer="layer1"
     showgrid="false"
     inkscape:window-width="1366"
     inkscape:window-height="746"
     inkscape:window-x="-8"
     inkscape:window-y="-8"
     inkscape:window-maximized="1" />
  <metadata
     id="metadata5">
    <rdf:RDF>
      <cc:Work
         rdf:about="">
        <dc:format>image/svg+xml</dc:format>
        <dc:type
           rdf:resource="http://purl.org/dc/dcmitype/StillImage" />
        <dc:title></dc:title>
      </cc:Work>
    </rdf:RDF>
  </metadata>
  <g
     inkscape:label="Layer 1"
     inkscape:groupmode="layer"
     id="layer1">
    <g
       id="g843"
       inkscape:export-xdpi="96"
       inkscape:export-ydpi="96">
      <path
         sodipodi:nodetypes="ccscscscscscscsccccc"
         inkscape:connector-curvature="0"
         id="rect815"
         d="m 1.1339285,146.56548 c 6.4144687,-1.04085 12.9220605,-7.9375 12.9220605,-7.9375 0,0 7.866991,7.9375 12.922061,7.9375 5.05507,0 12.922061,-7.9375 12.922061,-7.9375 0,0 7.866991,7.9375 12.92206,7.9375 5.05507,0 12.922061,-7.9375 12.922061,-7.9375 0,0 7.866991,7.9375 12.922061,7.9375 5.05507,0 12.922061,-7.9375 12.922061,-7.9375 0,0 7.866988,7.9375 12.922056,7.9375 5.05507,0 12.92206,-7.9375 12.92206,-7.9375 0,0 7.867,7.9375 12.92207,7.9375 5.05507,0 12.92206,-7.9375 12.92206,-7.9375 0,0 7.86699,7.9375 12.92206,7.9375 5.05507,0 12.92206,-7.9375 12.92206,-7.9375 0,0 7.86699,7.9375 12.92206,7.9375 5.05507,0 12.92206,-7.9375 12.92206,-7.9375 0,0 6.24032,8.46897 12.92206,7.9375 V 209.6875 H 1.1339285 Z"
         style="fill:#4a83d5;fill-opacity:1;stroke:#294c8f;stroke-width:1.10000002;stroke-linecap:round;stroke-linejoin:round;stroke-miterlimit:4;stroke-dasharray:none;stroke-opacity:1" />
      <path
         sodipodi:nodetypes="ccscscscscscscsccccc"
         inkscape:connector-curvature="0"
         id="rect815-8"
         d="m 1.1339219,148.15299 c 6.414469,-1.04085 12.9220611,-7.9375 12.9220611,-7.9375 0,0 7.866991,7.9375 12.922061,7.9375 5.055071,0 12.922062,-7.9375 12.922062,-7.9375 0,0 7.866991,7.9375 12.922058,7.9375 5.05507,0 12.92206,-7.9375 12.92206,-7.9375 0,0 7.867,7.9375 12.92206,7.9375 5.05507,0 12.92207,-7.9375 12.92207,-7.9375 0,0 7.866982,7.9375 12.922056,7.9375 5.05507,0 12.92206,-7.9375 12.92206,-7.9375 0,0 7.867,7.9375 12.92207,7.9375 5.05507,0 12.92206,-7.9375 12.92206,-7.9375 0,0 7.86699,7.9375 12.92206,7.9375 5.05507,0 12.92206,-7.9375 12.92206,-7.9375 0,0 7.86699,7.9375 12.92206,7.9375 5.05507,0 12.92206,-7.9375 12.92206,-7.9375 0,0 6.24032,8.46897 12.92206,7.9375 v 63.12202 H 1.1339219 Z"
         style="fill:url(#linearGradient839);fill-opacity:1;stroke:none;stroke-width:1.10000002;stroke-linecap:round;stroke-linejoin:round;stroke-miterlimit:4;stroke-dasharray:none;stroke-opacity:1" />
    </g>
  </g>
</svg>
